<svg xmlns="http://www.w3.org/2000/svg" width="56.001" height="56.001" viewBox="0 0 56.001 56.001">
  <g id="logo" transform="translate(-88 -31.999)">
    <path id="Subtraction_1" data-name="Subtraction 1" d="M-6758,98h-52a2,2,0,0,1-2-2V44a2,2,0,0,1,2-2h52a2,2,0,0,1,2,2V96A2,2,0,0,1-6758,98Zm-36.816-22.56V81.7a4.374,4.374,0,0,0,1.2,3.353,5.028,5.028,0,0,0,3.518,1.111,5.028,5.028,0,0,0,3.529-1.111,4.389,4.389,0,0,0,1.193-3.353V75.441h-2.752v6.3a2.526,2.526,0,0,1-.489,1.7,1.867,1.867,0,0,1-1.48.561,1.845,1.845,0,0,1-1.463-.561,2.538,2.538,0,0,1-.487-1.7v-6.3Zm27.519,3.279h.017l.8,1.568L-6763.2,86h3.057V75.441h-2.433v5.327l.063,1.952h-.016l-.8-1.568-3.279-5.712h-3.057V86h2.433V80.672l-.065-1.951Zm-11.967,3.424h1.648L-6775.36,86h3.042l-2.751-4.264a3.436,3.436,0,0,0,1.085-.585,3.007,3.007,0,0,0,1.042-2.464,2.95,2.95,0,0,0-1.05-2.361,4.426,4.426,0,0,0-2.936-.887h-5.04V86h2.7V82.145Zm-27.569-6.7V86h5.376a4.673,4.673,0,0,0,2.879-.745,2.513,2.513,0,0,0,.961-2.1,2.411,2.411,0,0,0-.6-1.641,2.82,2.82,0,0,0-1.815-.839v-.015a2.525,2.525,0,0,0,1.615-.824,2.377,2.377,0,0,0,.528-1.544,2.527,2.527,0,0,0-.928-2.1,4.733,4.733,0,0,0-2.881-.744Zm17.385-10.793h0l-1.993,2.759A8.149,8.149,0,0,0-6789.5,68.9a10.122,10.122,0,0,0,2.592.995,12.849,12.849,0,0,0,3.024.349,9.538,9.538,0,0,0,3.455-.588,5.258,5.258,0,0,0,2.376-1.752,4.658,4.658,0,0,0,.863-2.843,3.72,3.72,0,0,0-1.1-2.809,7.449,7.449,0,0,0-3.479-1.607l-2.664-.6a4.275,4.275,0,0,1-1.525-.588,1.04,1.04,0,0,1-.467-.853,1.285,1.285,0,0,1,.24-.768,1.583,1.583,0,0,1,.792-.528,4.487,4.487,0,0,1,1.439-.191,6.474,6.474,0,0,1,2.7.54,7.209,7.209,0,0,1,2.219,1.619l1.994-2.664a8.307,8.307,0,0,0-2.94-2,10.391,10.391,0,0,0-3.9-.684,9.167,9.167,0,0,0-3.672.672,5.472,5.472,0,0,0-2.353,1.836,4.53,4.53,0,0,0-.817,2.652,3.818,3.818,0,0,0,.6,2.2,4.2,4.2,0,0,0,1.643,1.392,11.1,11.1,0,0,0,2.389.827l2.928.648a3.086,3.086,0,0,1,1.368.588,1.145,1.145,0,0,1,.359.851,1.251,1.251,0,0,1-.264.793,1.607,1.607,0,0,1-.827.5,5.062,5.062,0,0,1-1.405.168,7.4,7.4,0,0,1-2.124-.313,8,8,0,0,1-1.92-.851,6.33,6.33,0,0,1-1.475-1.236Zm18.983-1.032h6.049V70h4.127V54.16h-4.127v6.264h-6.049V54.16h-4.127V70h4.127V63.616Zm-32.176,2.809h5.458L-6796.1,70h4.249l-5.544-15.841h-4.944L-6807.9,70h4.153l1.111-3.576Zm.72,17.64h-2.255V81.729h2.255a1.756,1.756,0,0,1,1.122.3,1.04,1.04,0,0,1,.367.857,1.08,1.08,0,0,1-.367.879A1.745,1.745,0,0,1-6801.92,84.064Zm24.607-3.872h-1.95V77.52h1.95a1.911,1.911,0,0,1,1.2.32,1.22,1.22,0,0,1,.4,1.009,1.24,1.24,0,0,1-.4,1.024A1.9,1.9,0,0,1-6777.313,80.192Zm-24.862-.431h-2v-2.3h2c.977,0,1.472.388,1.472,1.152S-6801.2,79.761-6802.175,79.761Zm4.137-16.145h-3.73l1.185-3.816.648-2.472h.048l.7,2.5,1.153,3.791Z" transform="translate(6900 -10)" fill="#f25d27"/>
  </g>
</svg>
